<?xml version="1.0" standalone="no"?>
<!DOCTYPE svg PUBLIC "-//W3C//DTD SVG 20010904//EN"
 "http://www.w3.org/TR/2001/REC-SVG-20010904/DTD/svg10.dtd">
<svg version="1.0" xmlns="http://www.w3.org/2000/svg"
 width="700.000000pt" height="700.000000pt" viewBox="0 0 700.000000 700.000000"
 preserveAspectRatio="xMidYMid meet">
<metadata>
Created by potrace 1.11, written by Peter Selinger 2001-2013
</metadata>
<g transform="translate(0.000000,700.000000) scale(0.100000,-0.100000)"
fill="#000000" stroke="none">
<path d="M580 5189 c-30 -12 -246 -223 -264 -259 -12 -22 -13 -44 -8 -100 1
-8 354 -367 784 -797 l783 -783 -782 -782 c-685 -686 -782 -788 -788 -820 -4
-20 -4 -47 0 -60 9 -28 229 -254 267 -274 29 -15 83 -13 115 4 10 6 437 431
950 944 659 661 932 940 935 958 10 74 40 41 -936 1019 -544 546 -944 939
-963 947 -37 16 -58 17 -93 3z"/>
<path d="M2813 1484 c-53 -27 -63 -62 -63 -234 0 -138 2 -156 22 -191 13 -23
33 -42 51 -49 20 -7 638 -10 1929 -10 2116 0 1949 -6 1982 69 15 31 17 63 14
197 -3 176 -12 202 -72 224 -20 7 -637 10 -1930 10 -1706 0 -1904 -2 -1933
-16z"/>
</g>
</svg>
